Coordinates
version=1
nRows=43
nColumns=12
inDegrees=yes

Units are S.I. units (second, meters, Newtons, ...)
Angles are in degrees

endheader
time	SC_y	SC_z	SC_x	AC_y	AC_z	AC_x	GH_y	GH_z	GH_yy	EL_x	PS_y
       0.0               -26.2          22.27          28.62          55.22         -10.59          4.749          72.28          69.45         -126.9          14.39          123.1
   0.03191               -26.2          22.27          28.62          55.22         -10.59          4.749          72.29          69.45         -126.9          14.39          123.1
   0.06382              -26.21          22.27          28.63          55.22         -10.59          4.749           72.3          69.45         -126.9          14.39          123.1
   0.09572              -26.21          22.27          28.63          55.22         -10.58          4.749          72.31          69.46         -126.8          14.39          123.1
    0.1276              -26.21          22.27          28.63          55.22         -10.58          4.749          72.32          69.46         -126.8          14.39          123.1
    0.1595              -26.22          22.27          28.63          55.22         -10.58          4.749          72.33          69.46         -126.7          14.39          123.1
    0.1914              -26.22          22.27          28.64          55.21         -10.58          4.749          72.34          69.47         -126.7           14.4          123.0
    0.2234              -26.22          22.27          28.64          55.21         -10.58          4.749          72.35          69.47         -126.6           14.4          123.0
    0.2553              -26.23          22.27          28.65          55.21         -10.58          4.749          72.36          69.47         -126.5           14.4          123.0
    0.2872              -26.23          22.27          28.65          55.21         -10.58          4.749          72.38          69.48         -126.5           14.4          123.0
    0.3191              -26.24          22.27          28.65          55.21         -10.58          4.748          72.39          69.48         -126.4           14.4          122.9
     0.351              -26.24          22.27          28.66          55.21         -10.58          4.748          72.41          69.49         -126.3           14.4          122.9
    0.3829              -26.25          22.27          28.66          55.21         -10.58          4.748          72.43          69.49         -126.2          14.41          122.9
    0.4148              -26.26          22.27          28.67          55.21         -10.57          4.748          72.45           69.5         -126.1          14.41          122.8
    0.4467              -26.26          22.27          28.68           55.2         -10.57          4.748          72.47           69.5         -126.0          14.41          122.8
    0.4786              -26.27          22.27          28.68           55.2         -10.57          4.748          72.49          69.51         -125.9          14.42          122.7
    0.5105              -26.28          22.27          28.69           55.2         -10.57          4.748          72.51          69.52         -125.8          14.42          122.7
    0.5424              -26.29          22.28           28.7           55.2         -10.57          4.748          72.54          69.52         -125.7          14.42          122.6
    0.5743               -26.3          22.28          28.71           55.2         -10.57          4.748          72.57          69.53         -125.6          14.43          122.6
    0.6062              -26.31          22.28          28.71          55.19         -10.56          4.747           72.6          69.54         -125.4          14.43          122.5
    0.6382              -26.32          22.28          28.72          55.19         -10.56          4.747          72.63          69.55         -125.2          14.43          122.4
    0.6701              -26.33          22.28          28.74          55.19         -10.56          4.747          72.67          69.56         -125.1          14.44          122.4
     0.702              -26.35          22.28          28.75          55.19         -10.56          4.747          72.71          69.57         -124.9          14.45          122.3
    0.7339              -26.36          22.28          28.76          55.18         -10.55          4.747          72.76          69.58         -124.6          14.45          122.2
    0.7658              -26.38          22.28          28.78          55.18         -10.55          4.746          72.81           69.6         -124.4          14.46          122.1
    0.7977               -26.4          22.28          28.79          55.17         -10.54          4.746          72.87          69.62         -124.1          14.47          122.0
    0.8296              -26.42          22.28          28.81          55.17         -10.54          4.746          72.93          69.63         -123.8          14.47          121.8
    0.8615              -26.44          22.28          28.83          55.16         -10.53          4.745           73.0          69.65         -123.5          14.48          121.7
    0.8934              -26.47          22.28          28.86          55.16         -10.53          4.745          73.08          69.68         -123.1           14.5          121.5
    0.9253               -26.5          22.28          28.89          55.15         -10.52          4.744          73.18           69.7         -122.6          14.51          121.4
    0.9572              -26.54          22.28          28.92          55.14         -10.51          4.744          73.28          69.73         -122.1          14.52          121.1
    0.9891              -26.58          22.28          28.95          55.13         -10.51          4.743           73.4          69.77         -121.5          14.54          120.9
     1.021              -26.63          22.29          28.99          55.12         -10.49          4.742          73.54          69.81         -120.8          14.56          120.6
     1.053              -26.68          22.29          29.04          55.11         -10.48          4.741           73.7          69.85         -120.1          14.58          120.3
     1.085              -26.75          22.29           29.1          55.09         -10.47           4.74          73.89          69.91         -119.1           14.6          119.9
     1.117              -26.82          22.29          29.17          55.08         -10.45          4.739          74.12          69.97         -118.1          14.63          119.5
     1.149              -26.91           22.3          29.24          55.06         -10.43          4.738          74.38          70.05         -116.8          14.67          118.9
     1.181              -27.02           22.3          29.34          55.03         -10.41          4.736           74.7          70.14         -115.2          14.71          118.3
     1.212              -27.15           22.3          29.45           55.0         -10.38          4.734          75.09          70.25         -113.4          14.76          117.5
     1.244              -27.31          22.31          29.59          54.96         -10.35          4.732          75.56          70.38         -111.1          14.83          116.6
     1.276               -27.5          22.31          29.77          54.92         -10.31          4.728          76.14          70.54         -108.3          14.91          115.4
     1.308              -27.75          22.32          29.98          54.86         -10.25          4.725          76.87          70.75         -104.8           15.0          113.9
      1.34              -28.06          22.33          30.25          54.79         -10.19           4.72          77.78          71.01         -100.4          15.13          112.1
